<svg width="14" height="15" viewBox="0 0 14 15" fill="none" xmlns="http://www.w3.org/2000/svg">
<path fill-rule="evenodd" clip-rule="evenodd" d="M6.46664 0.0799406C6.81355 -0.0266473 7.18645 -0.0266467 7.53336 0.0799415L12.7834 1.69301C13.5082 1.91571 14 2.56265 14 3.29335V6.67318C14 8.17684 13.6808 9.72885 12.6968 11.1688C11.7137 12.6076 10.1116 13.8694 7.66493 14.8699C7.24091 15.0434 6.75909 15.0434 6.33508 14.8699C3.88836 13.8694 2.28631 12.6076 1.3032 11.1688C0.31923 9.72885 0 8.17684 0 6.67318V3.29335C0 2.56265 0.49183 1.91571 1.21664 1.69301L6.46664 0.0799406ZM7.07619 1.45167C7.02664 1.43644 6.97336 1.43644 6.92381 1.45167L1.67381 3.06474C1.57026 3.09655 1.5 3.18898 1.5 3.29335V6.67318C1.5 7.9774 1.77465 9.23329 2.55737 10.3788C3.34094 11.5255 4.67838 12.627 6.92287 13.5449C6.97134 13.5647 7.02866 13.5647 7.07713 13.5449C9.3216 12.627 10.6591 11.5255 11.4426 10.3788C12.2253 9.23329 12.5 7.9774 12.5 6.67318V3.29335C12.5 3.18898 12.4297 3.09655 12.3262 3.06474L7.07619 1.45167ZM8 10.0338C8 10.5641 7.55228 10.994 7 10.994C6.44772 10.994 6 10.5641 6 10.0338C6 9.50349 6.44772 9.07361 7 9.07361C7.55228 9.07361 8 9.50349 8 10.0338ZM7.75 4.51284C7.75 4.11512 7.41421 3.79272 7 3.79272C6.58579 3.79272 6.25 4.11512 6.25 4.51284V7.39333C6.25 7.79104 6.58579 8.11345 7 8.11345C7.41421 8.11345 7.75 7.79104 7.75 7.39333V4.51284Z" fill="#24292E"/>
</svg>
