<svg width="14" height="14" viewBox="0 0 14 14" fill="none" xmlns="http://www.w3.org/2000/svg">
<path fill-rule="evenodd" clip-rule="evenodd" d="M9.95166 0.509503C10.6309 -0.169754 11.7321 -0.169752 12.4114 0.509503L13.4906 1.58868C14.1698 2.26793 14.1698 3.36922 13.4906 4.04848L4.93335 12.6057C4.72433 12.8147 4.4655 12.967 4.18128 13.0482L0.95024 13.9713C0.689935 14.0458 0.409782 13.9731 0.218355 13.7817C0.0269275 13.5903 -0.0456708 13.3102 0.0286966 13.0499L0.95186 9.81878C1.03306 9.53462 1.18536 9.2757 1.39438 9.06668L9.95166 0.509503ZM11.3572 1.5637C11.2601 1.46667 11.1028 1.46667 11.0058 1.5637L9.75089 2.81857L11.1815 4.24915L12.4364 2.99428C12.5334 2.89724 12.5334 2.73992 12.4364 2.64288L11.3572 1.5637ZM10.1273 5.30335L8.69673 3.87277L2.44858 10.1209C2.41872 10.1507 2.39697 10.1877 2.38536 10.2284L1.83081 12.1693L3.77171 11.6147C3.81231 11.6031 3.84929 11.5814 3.87915 11.5515L10.1273 5.30335Z" fill="white"/>
</svg>
