<svg width="32" height="32" viewBox="0 0 32 32" fill="none" xmlns="http://www.w3.org/2000/svg">
<g clip-path="url(#clip0_15_1313)">
<path d="M26.667 8.00008H22.667V5.33341C22.667 3.85341 21.4803 2.66675 20.0003 2.66675H12.0003C10.5203 2.66675 9.33366 3.85341 9.33366 5.33341V8.00008H5.33366C3.85366 8.00008 2.66699 9.18675 2.66699 10.6667V25.3334C2.66699 26.8134 3.85366 28.0001 5.33366 28.0001H26.667C28.147 28.0001 29.3337 26.8134 29.3337 25.3334V10.6667C29.3337 9.18675 28.147 8.00008 26.667 8.00008ZM12.0003 5.33341H20.0003V8.00008H12.0003V5.33341ZM26.667 25.3334H5.33366V22.6667H26.667V25.3334ZM26.667 18.6667H5.33366V10.6667H9.33366V13.3334H12.0003V10.6667H20.0003V13.3334H22.667V10.6667H26.667V18.6667Z" fill="#00D4EA"/>
</g>
<defs>
<clipPath id="clip0_15_1313">
<rect width="32" height="32" fill="white"/>
</clipPath>
</defs>
</svg>
