<svg width="24" height="24" viewBox="0 0 24 24" fill="none" xmlns="http://www.w3.org/2000/svg">
<g id="icon/mail">
<path id="Vector" d="M3 5V4H2V5H3ZM21 5H22V4H21V5ZM21 19V20H22V19H21ZM3 19H2V20H3V19ZM12 13L11.3356 13.7474C11.7145 14.0842 12.2855 14.0842 12.6644 13.7474L12 13ZM10.0856 11.6187C10.4273 11.1848 10.3526 10.5561 9.91869 10.2144C9.48479 9.87267 8.85606 9.94742 8.51436 10.3813L10.0856 11.6187ZM15.4856 10.3813C15.1439 9.94742 14.5152 9.87267 14.0813 10.2144C13.6474 10.5561 13.5727 11.1848 13.9144 11.6187L15.4856 10.3813ZM3 6H21V4H3V6ZM20 5V19H22V5H20ZM21 18H3V20H21V18ZM4 19V5H2V19H4ZM2.33564 5.74741L11.3356 13.7474L12.6644 12.2526L3.66436 4.25259L2.33564 5.74741ZM12.6644 13.7474L21.6644 5.74741L20.3356 4.25259L11.3356 12.2526L12.6644 13.7474ZM8.51436 10.3813L2.21436 18.3813L3.78564 19.6187L10.0856 11.6187L8.51436 10.3813ZM13.9144 11.6187L20.2144 19.6187L21.7856 18.3813L15.4856 10.3813L13.9144 11.6187Z" fill="#94C0E9"/>
</g>
</svg>
