<svg width="28" height="28" viewBox="0 0 28 28" fill="none" xmlns="http://www.w3.org/2000/svg">
<g id="Frame 43">
<path id="Vector (Stroke)" fill-rule="evenodd" clip-rule="evenodd" d="M12.069 3.44828C7.30789 3.44828 3.44828 7.30789 3.44828 12.069C3.44828 16.83 7.30789 20.6897 12.069 20.6897C16.83 20.6897 20.6897 16.83 20.6897 12.069C20.6897 7.30789 16.83 3.44828 12.069 3.44828ZM0 12.069C0 5.40346 5.40346 0 12.069 0C18.7345 0 24.1379 5.40346 24.1379 12.069C24.1379 18.7345 18.7345 24.1379 12.069 24.1379C5.40346 24.1379 0 18.7345 0 12.069Z" fill="white"/>
<path id="Vector (Stroke)_2" fill-rule="evenodd" clip-rule="evenodd" d="M19.8193 19.8196C20.498 19.1409 21.5984 19.1409 22.2771 19.8196L27.4909 25.0334C28.1696 25.7121 28.1696 26.8125 27.4909 27.4912C26.8122 28.1699 25.7118 28.1699 25.0331 27.4912L19.8193 22.2774C19.1406 21.5987 19.1406 20.4983 19.8193 19.8196Z" fill="white"/>
</g>
</svg>
