<svg width="13" height="12" viewBox="0 0 13 12" fill="none" xmlns="http://www.w3.org/2000/svg">
<g id="icon_button">
<path id="Vector 4 (Stroke)" fill-rule="evenodd" clip-rule="evenodd" d="M7.79289 0.292893C8.18342 -0.0976311 8.81658 -0.0976311 9.20711 0.292893L12.2071 3.29289C12.5976 3.68342 12.5976 4.31658 12.2071 4.70711L5.20711 11.7071C5.01957 11.8946 4.76522 12 4.5 12H1.5C0.947715 12 0.5 11.5523 0.5 11V8C0.5 7.73478 0.605357 7.48043 0.792893 7.29289L7.79289 0.292893ZM2.5 8.41421V10H4.08579L10.0858 4L8.5 2.41421L2.5 8.41421Z" fill="white"/>
<path id="Rectangle 284" d="M8.5 11C8.5 10.4477 8.94772 10 9.5 10H11.5C12.0523 10 12.5 10.4477 12.5 11V11C12.5 11.5523 12.0523 12 11.5 12H9.5C8.94772 12 8.5 11.5523 8.5 11V11Z" fill="white"/>
</g>
</svg>
