<svg width="24" height="28" viewBox="0 0 24 28" fill="none" xmlns="http://www.w3.org/2000/svg">
<path id="Vector" d="M8.94667 6.48948L10.6667 4.73499V20.377C10.6667 20.7349 10.8071 21.0782 11.0572 21.3313C11.3072 21.5844 11.6464 21.7266 12 21.7266C12.3536 21.7266 12.6928 21.5844 12.9428 21.3313C13.1929 21.0782 13.3333 20.7349 13.3333 20.377V4.73499L15.0533 6.48948C15.1773 6.61598 15.3248 6.71638 15.4872 6.7849C15.6497 6.85342 15.824 6.88869 16 6.88869C16.176 6.88869 16.3503 6.85342 16.5128 6.7849C16.6752 6.71638 16.8227 6.61598 16.9467 6.48948C17.0716 6.36402 17.1708 6.21475 17.2385 6.05029C17.3062 5.88583 17.3411 5.70942 17.3411 5.53126C17.3411 5.3531 17.3062 5.17669 17.2385 5.01223C17.1708 4.84777 17.0716 4.6985 16.9467 4.57304L12.9467 0.524212C12.8227 0.397715 12.6752 0.297312 12.5128 0.228794C12.3503 0.160276 12.176 0.125 12 0.125C11.824 0.125 11.6497 0.160276 11.4872 0.228794C11.3248 0.297312 11.1773 0.397715 11.0533 0.524212L7.05333 4.57304C6.80226 4.82717 6.66121 5.17186 6.66121 5.53126C6.66121 5.89066 6.80226 6.23535 7.05333 6.48948C7.3044 6.74362 7.64493 6.88639 8 6.88639C8.35507 6.88639 8.6956 6.74362 8.94667 6.48948ZM20 9.58009H18.3333C17.9797 9.58009 17.6406 9.72228 17.3905 9.97538C17.1405 10.2285 17 10.5718 17 10.9297C17 11.2876 17.1405 11.6309 17.3905 11.884C17.6406 12.1371 17.9797 12.2793 18.3333 12.2793H20C20.3536 12.2793 20.6928 12.4215 20.9428 12.6746C21.1929 12.9277 21.3333 13.271 21.3333 13.6289V23.0762C21.3333 23.4341 21.1929 23.7774 20.9428 24.0305C20.6928 24.2836 20.3536 24.4258 20 24.4258H4C3.64638 24.4258 3.30724 24.2836 3.05719 24.0305C2.80714 23.7774 2.66667 23.4341 2.66667 23.0762V13.6289C2.66667 13.271 2.80714 12.9277 3.05719 12.6746C3.30724 12.4215 3.64638 12.2793 4 12.2793H5.66667C6.02029 12.2793 6.35943 12.1371 6.60948 11.884C6.85952 11.6309 7 11.2876 7 10.9297C7 10.5718 6.85952 10.2285 6.60948 9.97538C6.35943 9.72228 6.02029 9.58009 5.66667 9.58009H4C2.93913 9.58009 1.92172 10.0067 1.17157 10.766C0.421427 11.5253 0 12.5551 0 13.6289V23.0762C0 24.15 0.421427 25.1798 1.17157 25.9391C1.92172 26.6984 2.93913 27.125 4 27.125H20C21.0609 27.125 22.0783 26.6984 22.8284 25.9391C23.5786 25.1798 24 24.15 24 23.0762V13.6289C24 12.5551 23.5786 11.5253 22.8284 10.766C22.0783 10.0067 21.0609 9.58009 20 9.58009Z" fill="#333333"/>
</svg>
