<svg width="27" height="26" viewBox="0 0 27 26" fill="none" xmlns="http://www.w3.org/2000/svg">
<g id="logo" clip-path="url(#clip0_6_3547)">
<path id="image 8 (Traced)" fill-rule="evenodd" clip-rule="evenodd" d="M11.8714 0.0659104C9.42776 0.412418 7.3662 1.28136 5.42263 2.78404C4.4156 3.56258 3.20808 4.91405 2.43555 6.12712C1.85106 7.04486 1.20976 8.53029 0.917805 9.64237C0.583012 10.9177 0.525024 11.4144 0.525024 13.0075C0.525024 14.6006 0.583012 15.0973 0.917805 16.3727C1.71406 19.4058 3.67421 22.1153 6.37135 23.911C7.7997 24.8619 9.54399 25.5456 11.3891 25.8777C11.9912 25.9861 12.2347 26 13.525 26C14.8052 26 15.0614 25.9856 15.6434 25.8807C18.4531 25.3742 20.7841 24.176 22.7154 22.2456C24.6935 20.2685 25.8966 17.9507 26.4026 15.1422C26.5111 14.5404 26.525 14.2971 26.525 13.0075C26.525 11.7281 26.5106 11.472 26.4056 10.8904C26.1532 9.49175 25.831 8.49906 25.2289 7.26503C24.5842 5.94384 23.8152 4.87145 22.7409 3.79546C20.7957 1.84714 18.468 0.643971 15.6698 0.140378C14.8525 -0.0067035 12.6835 -0.049204 11.8714 0.0659104Z" fill="#4DCD38"/>
<path id="image 8 (Traced)_2" d="M11.8188 8.125C12.791 9.55243 15.19 13.2349 15.3271 13.4812C15.2602 13.1931 15.2867 8.125 15.2867 8.125H19.2125V17.875L15.259 17.8669L11.8604 12.8486V17.875H9.84896H7.83752V8.125H11.8188Z" fill="#F5F5F5"/>
</g>
<defs>
<clipPath id="clip0_6_3547">
<rect width="26" height="26" fill="white" transform="translate(0.525024)"/>
</clipPath>
</defs>
</svg>
