<svg width="50" height="28" viewBox="0 0 50 28" fill="none" xmlns="http://www.w3.org/2000/svg">
<rect width="50" height="28" fill="#FFD300"/>
<path d="M12.092 19V10.12H13.892L16.472 14.86L17.372 16.78H17.432C17.336 15.856 17.192 14.668 17.192 13.66V10.12H18.884V19H17.072L14.504 14.248L13.604 12.352H13.544C13.628 13.3 13.772 14.416 13.772 15.448V19H12.092ZM21.0803 19V10.12H26.5283V11.596H22.8563V13.648H25.9643V15.148H22.8563V17.512H26.6603V19H21.0803ZM29.3031 19L27.5871 10.12H29.3991L30.0951 14.452C30.2391 15.388 30.3711 16.336 30.5151 17.296H30.5631C30.7431 16.336 30.9351 15.388 31.1271 14.452L32.1471 10.12H33.6711L34.7031 14.452C34.8951 15.376 35.0631 16.336 35.2671 17.296H35.3271C35.4471 16.336 35.5911 15.388 35.7111 14.452L36.4311 10.12H38.1111L36.4671 19H34.2471L33.2631 14.608C33.1071 13.924 32.9871 13.228 32.8791 12.556H32.8311C32.7111 13.228 32.5791 13.924 32.4471 14.608L31.4751 19H29.3031Z" fill="white"/>
</svg>
