<svg width="12" height="12" viewBox="0 0 12 12" fill="none" xmlns="http://www.w3.org/2000/svg">
<g id="icon_button">
<g id="Vector">
<path fill-rule="evenodd" clip-rule="evenodd" d="M0.292893 4.29289C0.683417 3.90237 1.31658 3.90237 1.70711 4.29289L5.70711 8.29289C6.09763 8.68342 6.09763 9.31658 5.70711 9.70711C5.31658 10.0976 4.68342 10.0976 4.29289 9.70711L0.292893 5.70711C-0.0976311 5.31658 -0.0976311 4.68342 0.292893 4.29289Z" fill="white"/>
<path fill-rule="evenodd" clip-rule="evenodd" d="M11.7071 2.29289C12.0976 2.68342 12.0976 3.31658 11.7071 3.70711L5.70711 9.70711C5.31658 10.0976 4.68342 10.0976 4.29289 9.70711C3.90237 9.31658 3.90237 8.68342 4.29289 8.29289L10.2929 2.29289C10.6834 1.90237 11.3166 1.90237 11.7071 2.29289Z" fill="white"/>
</g>
</g>
</svg>
