<svg width="36" height="36" viewBox="0 0 36 36" fill="none" xmlns="http://www.w3.org/2000/svg">
<circle cx="18" cy="18" r="18" fill="white" fill-opacity="0.9"/>
<path fill-rule="evenodd" clip-rule="evenodd" d="M26.25 18.0001C26.25 18.4845 26.0161 18.9391 25.6219 19.2207L15.1219 26.7207C14.6646 27.0473 14.0632 27.091 13.5636 26.8339C13.064 26.5768 12.75 26.062 12.75 25.5001L12.75 18.0001C12.75 17.1717 13.4216 16.5001 14.25 16.5001C15.0784 16.5001 15.75 17.1717 15.75 18.0001L15.75 22.5853L22.1693 18.0001L13.3781 11.7207C12.704 11.2392 12.5479 10.3024 13.0294 9.62826C13.5109 8.95414 14.4477 8.798 15.1219 9.27952L25.6219 16.7795C26.0161 17.0611 26.25 17.5157 26.25 18.0001Z" fill="#1D4ED8"/>
</svg>
