<svg width="56" height="67" viewBox="0 0 56 67" fill="none" xmlns="http://www.w3.org/2000/svg">
<path d="M6.94336 0.123047V8.6543H5.18555L1.75781 2.93555V8.6543H0V0.123047H1.75781L5.19141 5.84766V0.123047H6.94336Z" fill="white"/>
<path d="M15.4805 4.18945V4.59375C15.4805 5.24219 15.3926 5.82422 15.2168 6.33984C15.041 6.85547 14.793 7.29492 14.4727 7.6582C14.1523 8.01758 13.7695 8.29297 13.3242 8.48438C12.8828 8.67578 12.3926 8.77148 11.8535 8.77148C11.3184 8.77148 10.8281 8.67578 10.3828 8.48438C9.94141 8.29297 9.55859 8.01758 9.23438 7.6582C8.91016 7.29492 8.6582 6.85547 8.47852 6.33984C8.30273 5.82422 8.21484 5.24219 8.21484 4.59375V4.18945C8.21484 3.53711 8.30273 2.95508 8.47852 2.44336C8.6543 1.92773 8.90234 1.48828 9.22266 1.125C9.54688 0.761719 9.92969 0.484375 10.3711 0.292969C10.8164 0.101562 11.3066 0.00585938 11.8418 0.00585938C12.3809 0.00585938 12.8711 0.101562 13.3125 0.292969C13.7578 0.484375 14.1406 0.761719 14.4609 1.125C14.7852 1.48828 15.0352 1.92773 15.2109 2.44336C15.3906 2.95508 15.4805 3.53711 15.4805 4.18945ZM13.7051 4.59375V4.17773C13.7051 3.72461 13.6641 3.32617 13.582 2.98242C13.5 2.63867 13.3789 2.34961 13.2188 2.11523C13.0586 1.88086 12.8633 1.70508 12.6328 1.58789C12.4023 1.4668 12.1387 1.40625 11.8418 1.40625C11.5449 1.40625 11.2812 1.4668 11.0508 1.58789C10.8242 1.70508 10.6309 1.88086 10.4707 2.11523C10.3145 2.34961 10.1953 2.63867 10.1133 2.98242C10.0312 3.32617 9.99023 3.72461 9.99023 4.17773V4.59375C9.99023 5.04297 10.0312 5.44141 10.1133 5.78906C10.1953 6.13281 10.3164 6.42383 10.4766 6.66211C10.6367 6.89648 10.832 7.07422 11.0625 7.19531C11.293 7.31641 11.5566 7.37695 11.8535 7.37695C12.1504 7.37695 12.4141 7.31641 12.6445 7.19531C12.875 7.07422 13.0684 6.89648 13.2246 6.66211C13.3809 6.42383 13.5 6.13281 13.582 5.78906C13.6641 5.44141 13.7051 5.04297 13.7051 4.59375Z" fill="white"/>
<path d="M21.6035 0.123047V8.6543H19.8516V0.123047H21.6035Z" fill="white"/>
<path d="M24.0527 0.123047H25.541L27.7324 6.38672L29.9238 0.123047H31.4121L28.3301 8.6543H27.1348L24.0527 0.123047ZM23.25 0.123047H24.7324L25.002 6.22852V8.6543H23.25V0.123047ZM30.7324 0.123047H32.2207V8.6543H30.4629V6.22852L30.7324 0.123047Z" fill="white"/>
<path d="M37.3359 1.58203L35.0156 8.6543H33.1465L36.3164 0.123047H37.5059L37.3359 1.58203ZM39.2637 8.6543L36.9375 1.58203L36.75 0.123047H37.9512L41.1387 8.6543H39.2637ZM39.1582 5.47852V6.85547H34.6523V5.47852H39.1582Z" fill="white"/>
<path d="M48.5859 4.19531V7.57617C48.4531 7.73633 48.248 7.91016 47.9707 8.09766C47.6934 8.28125 47.3359 8.43945 46.8984 8.57227C46.4609 8.70508 45.9316 8.77148 45.3105 8.77148C44.7598 8.77148 44.2578 8.68164 43.8047 8.50195C43.3516 8.31836 42.9609 8.05078 42.6328 7.69922C42.3086 7.34766 42.0586 6.91797 41.8828 6.41016C41.707 5.89844 41.6191 5.31445 41.6191 4.6582V4.125C41.6191 3.46875 41.7031 2.88477 41.8711 2.37305C42.043 1.86133 42.2871 1.42969 42.6035 1.07812C42.9199 0.726562 43.2969 0.458984 43.7344 0.275391C44.1719 0.0917969 44.6582 0 45.1934 0C45.9355 0 46.5449 0.121094 47.0215 0.363281C47.498 0.601562 47.8613 0.933594 48.1113 1.35938C48.3652 1.78125 48.5215 2.26562 48.5801 2.8125H46.875C46.832 2.52344 46.75 2.27148 46.6289 2.05664C46.5078 1.8418 46.334 1.67383 46.1074 1.55273C45.8848 1.43164 45.5957 1.37109 45.2402 1.37109C44.9473 1.37109 44.6855 1.43164 44.4551 1.55273C44.2285 1.66992 44.0371 1.84375 43.8809 2.07422C43.7246 2.30469 43.6055 2.58984 43.5234 2.92969C43.4414 3.26953 43.4004 3.66406 43.4004 4.11328V4.6582C43.4004 5.10352 43.4434 5.49805 43.5293 5.8418C43.6152 6.18164 43.7422 6.46875 43.9102 6.70312C44.082 6.93359 44.293 7.10742 44.543 7.22461C44.793 7.3418 45.084 7.40039 45.416 7.40039C45.6934 7.40039 45.9238 7.37695 46.1074 7.33008C46.2949 7.2832 46.4453 7.22656 46.5586 7.16016C46.6758 7.08984 46.7656 7.02344 46.8281 6.96094V5.44922H45.2227V4.19531H48.5859Z" fill="white"/>
<path d="M55.7285 7.2832V8.6543H51.1875V7.2832H55.7285ZM51.7617 0.123047V8.6543H50.0039V0.123047H51.7617ZM55.1367 3.59766V4.93359H51.1875V3.59766H55.1367ZM55.7227 0.123047V1.5H51.1875V0.123047H55.7227Z" fill="white"/>
<path fill-rule="evenodd" clip-rule="evenodd" d="M12.2383 23.6543H44.2383C45.8951 23.6543 47.2383 24.9974 47.2383 26.6543V52.8257L35.6526 41.2401C34.8716 40.459 33.6053 40.459 32.8242 41.2401L25.2384 48.8259L18.6526 42.2401C17.8716 41.459 16.6053 41.459 15.8242 42.2401L9.23828 48.826V26.6543C9.23828 24.9974 10.5814 23.6543 12.2383 23.6543ZM34.2384 45.4827L47.2383 58.4826V58.6543C47.2383 60.3111 45.8951 61.6543 44.2383 61.6543H38.0669L28.0669 51.6543L34.2384 45.4827ZM9.23828 54.4829V58.6543C9.23828 60.3111 10.5814 61.6543 12.2383 61.6543H32.41L17.2384 46.4827L9.23828 54.4829ZM4.23828 26.6543C4.23828 22.236 7.82 18.6543 12.2383 18.6543H44.2383C48.6566 18.6543 52.2383 22.236 52.2383 26.6543V58.6543C52.2383 63.0726 48.6566 66.6543 44.2383 66.6543H12.2383C7.82 66.6543 4.23828 63.0726 4.23828 58.6543V26.6543ZM22.2383 34.6543C22.2383 32.9974 23.5814 31.6543 25.2383 31.6543C26.8951 31.6543 28.2383 32.9974 28.2383 34.6543C28.2383 36.3111 26.8951 37.6543 25.2383 37.6543C23.5814 37.6543 22.2383 36.3111 22.2383 34.6543ZM25.2383 27.6543C21.3723 27.6543 18.2383 30.7883 18.2383 34.6543C18.2383 38.5203 21.3723 41.6543 25.2383 41.6543C29.1043 41.6543 32.2383 38.5203 32.2383 34.6543C32.2383 30.7883 29.1043 27.6543 25.2383 27.6543Z" fill="white"/>
</svg>
