<svg width="24" height="24" viewBox="0 0 24 24" fill="none" xmlns="http://www.w3.org/2000/svg">
<path d="M23.5 12C23.5 18.3513 18.3513 23.5 12 23.5C5.64873 23.5 0.5 18.3513 0.5 12C0.5 5.64873 5.64873 0.5 12 0.5C18.3513 0.5 23.5 5.64873 23.5 12Z" fill="white" stroke="#D7D7D7"/>
<path fill-rule="evenodd" clip-rule="evenodd" d="M6.55275 12C6.61622 12.1291 6.71105 12.3138 6.83615 12.5357C7.09057 12.9871 7.46687 13.5866 7.95517 14.1834C8.94665 15.3952 10.3187 16.5 12 16.5C13.6813 16.5 15.0534 15.3952 16.0448 14.1834C16.5331 13.5866 16.9094 12.9871 17.1639 12.5357C17.289 12.3138 17.3838 12.1291 17.4473 12C17.3838 11.8709 17.289 11.6862 17.1639 11.4643C16.9094 11.0129 16.5331 10.4134 16.0448 9.81662C15.0534 8.6048 13.6813 7.5 12 7.5C10.3187 7.5 8.94665 8.6048 7.95517 9.81662C7.46687 10.4134 7.09057 11.0129 6.83615 11.4643C6.71105 11.6862 6.61622 11.8709 6.55275 12ZM18 12C18.4583 11.8 18.4582 11.7999 18.4581 11.7997L18.4574 11.798L18.4557 11.7941L18.4498 11.781C18.4449 11.7699 18.4377 11.7542 18.4285 11.7342C18.41 11.6942 18.383 11.6369 18.3476 11.5648C18.2769 11.4207 18.1723 11.2169 18.035 10.9732C17.761 10.4871 17.3532 9.83657 16.8188 9.18338C15.7648 7.8952 14.1368 6.5 12 6.5C9.86317 6.5 8.23518 7.8952 7.18121 9.18338C6.64678 9.83657 6.23899 10.4871 5.965 10.9732C5.82768 11.2169 5.72314 11.4207 5.65238 11.5648C5.61698 11.6369 5.58998 11.6942 5.57151 11.7342C5.56227 11.7542 5.55516 11.7699 5.5502 11.781L5.54436 11.7941L5.54264 11.798L5.54209 11.7992C5.54201 11.7994 5.54174 11.8 6.00001 12L5.54209 11.7992C5.48645 11.9267 5.4861 12.0725 5.54174 12.2L6.00001 12C5.54174 12.2 5.54166 12.1998 5.54174 12.2L5.54264 12.202L5.54436 12.2059L5.5502 12.219C5.55516 12.2301 5.56227 12.2458 5.57151 12.2658C5.58998 12.3058 5.61698 12.3631 5.65238 12.4352C5.72314 12.5793 5.82768 12.7831 5.965 13.0268C6.23899 13.5129 6.64678 14.1634 7.18121 14.8166C8.23518 16.1048 9.86317 17.5 12 17.5C14.1368 17.5 15.7648 16.1048 16.8188 14.8166C17.3532 14.1634 17.761 13.5129 18.035 13.0268C18.1723 12.7831 18.2769 12.5793 18.3476 12.4352C18.383 12.3631 18.41 12.3058 18.4285 12.2658C18.4377 12.2458 18.4449 12.2301 18.4498 12.219L18.4557 12.2059L18.4574 12.202L18.4579 12.2008C18.458 12.2006 18.4583 12.2 18 12ZM18 12L18.4579 12.2008C18.5136 12.0733 18.5138 11.9272 18.4581 11.7997L18 12Z" fill="#212121"/>
<path fill-rule="evenodd" clip-rule="evenodd" d="M12 10.5C11.1716 10.5 10.5 11.1716 10.5 12C10.5 12.8284 11.1716 13.5 12 13.5C12.8284 13.5 13.5 12.8284 13.5 12C13.5 11.1716 12.8284 10.5 12 10.5ZM9.50001 12C9.50001 10.6193 10.6193 9.5 12 9.5C13.3807 9.5 14.5 10.6193 14.5 12C14.5 13.3807 13.3807 14.5 12 14.5C10.6193 14.5 9.50001 13.3807 9.50001 12Z" fill="#212121"/>
</svg>
