<svg width="17" height="16" viewBox="0 0 17 16" fill="none" xmlns="http://www.w3.org/2000/svg">
<g clip-path="url(#clip0_5876_6395)">
<path fill-rule="evenodd" clip-rule="evenodd" d="M1.75 0C2.30229 2.41411e-08 2.75 0.447715 2.75 1L2.75 15C2.75 15.5523 2.30228 16 1.75 16C1.19772 16 0.75 15.5523 0.75 15L0.750001 1C0.750001 0.447715 1.19772 -2.41411e-08 1.75 0Z" fill="white"/>
<path fill-rule="evenodd" clip-rule="evenodd" d="M0.750001 1C0.750001 0.447715 1.19772 -2.41411e-08 1.75 0L14.75 4.37113e-08C15.3023 4.37113e-08 15.75 0.447715 15.75 1C15.75 1.55228 15.3023 2 14.75 2H1.75C1.19772 2 0.750001 1.55228 0.750001 1Z" fill="white"/>
<path fill-rule="evenodd" clip-rule="evenodd" d="M0.75 15C0.75 14.4477 1.19772 14 1.75 14H7.75C8.30229 14 8.75 14.4477 8.75 15C8.75 15.5523 8.30229 16 7.75 16H1.75C1.19772 16 0.75 15.5523 0.75 15Z" fill="white"/>
<path d="M14.75 7C14.1977 7 13.75 6.55228 13.75 6L13.75 1C13.75 0.447715 14.1977 6.78525e-08 14.75 4.37113e-08C15.3023 4.37113e-08 15.75 0.447715 15.75 1V6C15.75 6.55228 15.3023 7 14.75 7Z" fill="white"/>
<path fill-rule="evenodd" clip-rule="evenodd" d="M16.4568 12.7071C16.8473 12.3166 16.8473 11.6834 16.4568 11.2929L10.4568 5.2929C10.3287 5.16474 10.1681 5.07382 9.99225 5.02986L5.99225 4.02986C5.65147 3.94467 5.29099 4.04452 5.04261 4.2929C4.79423 4.54128 4.69438 4.90177 4.77957 5.24254L5.77957 9.24254C5.82353 9.41837 5.91445 9.57895 6.04261 9.70711L12.0426 15.7071C12.4331 16.0976 13.0663 16.0976 13.4568 15.7071L16.4568 12.7071ZM7.12408 6.37437L9.23846 6.90297L12.3355 10L10.7497 11.5858L7.65268 8.48876L7.12408 6.37437ZM12.1639 13L12.7497 13.5858L14.3355 12L13.7497 11.4142L12.1639 13Z" fill="white"/>
</g>
<defs>
<clipPath id="clip0_5876_6395">
<rect width="16" height="16" fill="white" transform="translate(0.75)"/>
</clipPath>
</defs>
</svg>
