<svg width="45" height="45" viewBox="0 0 45 45" fill="none" xmlns="http://www.w3.org/2000/svg">
<rect width="45" height="45" fill="white"/>
<path opacity="0.3" d="M32.0743 13.9257C33.387 15.2384 34.1244 17.0188 34.1244 18.8753C34.1244 20.7317 33.387 22.5121 32.0743 23.8248L29.5986 26.2982L23.8248 32.0743C22.5084 33.3694 20.7336 34.0919 18.887 34.0844C17.0404 34.0769 15.2716 33.34 13.9658 32.0342C12.66 30.7284 11.9231 28.9596 11.9156 27.113C11.9081 25.2663 12.6305 23.4915 13.9256 22.1752L22.174 13.9257C23.4869 12.613 25.2675 11.8755 27.1241 11.8755C28.9808 11.8755 30.7614 12.613 32.0743 13.9257ZM26.2993 26.2993L19.7006 19.7007L15.5753 23.8248C14.7001 24.7 14.2084 25.8871 14.2084 27.1248C14.2084 28.3625 14.7001 29.5495 15.5753 30.4247C16.4505 31.2999 17.6375 31.7915 18.8752 31.7915C20.1129 31.7915 21.2999 31.2999 22.1751 30.4247L26.2993 26.2993Z" fill="black"/>
</svg>
