<svg width="45" height="45" viewBox="0 0 45 45" fill="none" xmlns="http://www.w3.org/2000/svg">
<rect width="45" height="45" fill="white"/>
<path opacity="0.3" d="M35.0149 25.5725L34.0139 26.8251C33.345 27.6622 30.0079 31.9667 30.0079 34.5032C30.0079 37.4221 32.254 39.7968 35.0148 39.7968C37.7757 39.7968 40.0219 37.4221 40.0219 34.5032C40.0219 31.9667 36.6848 27.6622 36.0157 26.8251L35.0149 25.5725ZM35.0149 37.2343C33.667 37.2343 32.5704 36.0091 32.5704 34.5032C32.5704 33.5693 33.8105 31.4696 35.0153 29.7626C36.2199 31.4683 37.4595 33.567 37.4595 34.5032C37.4595 36.0091 36.3628 37.2343 35.0149 37.2343ZM11.8231 6.12329L9.69813 11.9616L4.40969 9.7839L3.43402 12.1538L8.82096 14.372L4.15408 27.193C3.80664 28.151 3.85339 29.2077 4.28408 30.1313C4.71477 31.0549 5.49422 31.77 6.45144 32.1196L21.2434 37.5034C21.7177 37.6761 22.2214 37.7536 22.7257 37.7316C23.23 37.7096 23.725 37.5885 24.1825 37.3751C24.64 37.1618 25.051 36.8605 25.392 36.4883C25.733 36.1162 25.9974 35.6805 26.17 35.2061L33.839 14.1365L11.8231 6.12329ZM23.7627 34.3297C23.7052 34.4878 23.6171 34.633 23.5034 34.7571C23.3897 34.8812 23.2527 34.9816 23.1002 35.0527C22.9477 35.1238 22.7827 35.1642 22.6146 35.1715C22.4465 35.1789 22.2786 35.153 22.1205 35.0955L7.32814 29.7117C7.00883 29.5954 6.74876 29.3571 6.60515 29.0492C6.46154 28.7412 6.44614 28.3888 6.56235 28.0695L7.88997 24.4218H27.3687L23.7627 34.3297ZM8.82264 21.8593L11.1925 15.3481L14.1019 16.5461C14.1906 17.1172 14.4659 17.6428 14.885 18.0408C15.3041 18.4387 15.8432 18.6866 16.4181 18.7456C16.993 18.8047 17.5713 18.6715 18.0625 18.367C18.5537 18.0625 18.9301 17.6038 19.1329 17.0626C19.3357 16.5215 19.3535 15.9284 19.1834 15.376C19.0134 14.8237 18.6651 14.3433 18.193 14.0099C17.7209 13.6765 17.1517 13.509 16.5743 13.5335C15.9968 13.558 15.4438 13.7732 15.0017 14.1454L12.0696 12.938L13.3546 9.40778L30.5546 15.668L28.2656 21.9569V21.8593H8.82264Z" fill="black"/>
</svg>
