<svg width="22" height="22" viewBox="0 0 22 22" fill="none" xmlns="http://www.w3.org/2000/svg">
<path d="M20.1667 0H1.83333C1.3471 0 0.880787 0.193154 0.536971 0.536971C0.193154 0.880787 0 1.3471 0 1.83333V20.1667C0 20.6529 0.193154 21.1192 0.536971 21.463C0.880787 21.8068 1.3471 22 1.83333 22H20.1667C20.6529 22 21.1192 21.8068 21.463 21.463C21.8068 21.1192 22 20.6529 22 20.1667V1.83333C22 1.3471 21.8068 0.880787 21.463 0.536971C21.1192 0.193154 20.6529 0 20.1667 0ZM1.83333 20.1667V1.83333H20.1667V20.1667H1.83333Z" fill="#DDDDDD"/>
</svg>
