<svg width="229" height="294" viewBox="0 0 229 294" fill="none" xmlns="http://www.w3.org/2000/svg">
<g clip-path="url(#clip0_2933_5470)">
<path d="M141.091 308.758H138.653C138.653 308.758 135.387 385.859 135.533 397.811C135.679 409.763 136.362 430.471 135.533 454.082C134.704 477.693 133.169 499.938 133.169 499.938C133.169 499.938 117.764 502.987 105.527 499.938C100.945 467.156 100.116 452.424 100.53 432.837C100.945 413.251 99.7018 388.103 97.898 366.566C96.0943 345.028 93.4374 299.636 96.4355 265.829C115.107 265.317 141.066 267.073 141.066 267.073V308.758H141.091Z" fill="#7994BC"/>
<path d="M139.433 308.758H141.87C141.87 308.758 145.137 385.859 144.99 397.811C144.844 409.763 144.162 430.471 144.99 454.082C145.819 477.693 147.355 499.938 147.355 499.938C147.355 499.938 162.76 502.987 174.996 499.938C179.579 467.156 180.407 452.424 179.993 432.837C179.579 413.251 180.822 388.103 182.626 366.566C184.429 345.028 187.086 299.636 184.088 265.829C165.417 265.317 139.457 267.073 139.457 267.073V308.758H139.433Z" fill="#7994BC"/>
<path d="M138.19 271.293C138.19 271.293 126.904 287.83 125.685 287.83C124.466 287.83 102.431 277.366 95.8257 268.561C108.939 269.195 138.19 271.293 138.19 271.293Z" fill="white"/>
<path d="M143.091 271.292C143.091 271.292 154.06 287.83 155.23 287.83C156.4 287.83 178.215 274.536 184.65 265.731C171.902 266.365 143.091 271.292 143.091 271.292Z" fill="white"/>
<path d="M94.9262 265.438C94.9262 265.438 94.0974 267.877 96.4618 268.926C98.8262 269.974 108.064 271.292 141.092 271.292C174.145 271.292 183.724 267.462 184.626 265.73C185.528 263.999 185.114 261.633 185.114 261.633C185.114 261.633 113.061 248.9 94.9262 265.438Z" fill="#B29586"/>
<path d="M116.521 93.9899L122.712 91.063L137.605 87.3555L151.109 91.8923L157.763 95.2339C157.763 95.2339 144.357 128.675 139.116 129.138C133.9 129.626 116.886 101.185 116.521 93.9899Z" fill="#F4EDED"/>
<path d="M147.721 84.7461L151.133 91.9172C151.133 91.9172 148.915 95.6247 141.7 98.2102C138.555 91.722 136.971 89.4049 136.971 89.4049L133.095 98.2102C133.095 98.2102 126.612 96.9662 121.81 91.4781C123.93 86.6486 124.784 84.7461 124.784 84.7461H147.721Z" fill="white"/>
<path d="M112.352 95.6738C112.352 95.6738 87.2703 105.406 79.8603 110.967C72.4502 116.529 83.3703 155.75 83.3703 155.75C83.3703 155.75 86.5146 218.168 87.4409 231.339C88.3672 244.486 88.2697 259.024 93.2665 264.317C98.2634 269.585 126.685 268.488 142.236 268.488C157.787 268.488 180.456 268.292 185.185 263.292C189.914 258.292 194.545 111.431 194.545 111.431C194.545 111.431 178.847 101.235 159.201 95.747C149.28 116.114 139.14 129.163 139.14 129.163L130.536 123.895L112.352 95.6738Z" fill="#CCB4AA"/>
<path d="M82.2497 237.973C82.2497 237.973 95.7535 224.582 96.6798 224.191C97.606 223.801 103.48 233.289 103.407 234.582C103.334 235.899 92.2191 247.266 87.2954 248.437C82.3716 249.607 77.8866 247.168 76.4241 245.095C79.3003 241.509 82.2497 237.973 82.2497 237.973Z" fill="#FDB082"/>
<path d="M96.6543 224.193C96.6543 224.193 100.384 222.07 104.04 220.924C107.672 219.778 113.863 219.387 114.594 220.363C115.326 221.339 113.668 221.68 110.67 221.997C107.647 222.314 105.064 223.266 103.236 224.022C101.407 224.778 98.5799 226.778 98.5799 226.778L96.6543 224.193Z" fill="#FDB082"/>
<path d="M97.8489 227.241C97.8489 227.241 101.578 225.119 105.235 223.972C108.866 222.826 115.058 222.436 115.789 223.411C116.52 224.387 114.863 224.729 111.865 225.046C108.842 225.363 106.258 226.314 104.43 227.07C102.602 227.826 99.7745 229.826 99.7745 229.826L97.8489 227.241Z" fill="#FDB082"/>
<path d="M98.0671 230.387C98.0671 230.387 101.797 228.265 105.453 227.119C109.085 225.972 115.276 225.582 116.007 226.558C116.738 227.533 115.081 227.875 112.083 228.192C109.06 228.509 106.477 229.46 104.648 230.217C102.82 230.973 99.9928 232.973 99.9928 232.973L98.0671 230.387Z" fill="#FDB082"/>
<path d="M98.5552 233.876C98.5552 233.876 102.285 231.754 105.941 230.608C109.573 229.461 115.764 229.071 116.495 230.047C117.226 231.022 115.569 231.364 112.571 231.681C109.548 231.998 106.965 232.949 105.136 233.705C103.308 234.461 100.481 236.462 100.481 236.462L98.5552 233.876Z" fill="#FDB082"/>
<path d="M81.0308 234.291C81.0308 234.291 83.2977 235.535 83.3952 237.194C83.4927 238.852 79.7633 244.926 77.2527 246.048C74.7421 247.17 72.207 245.535 72.207 245.535L81.0308 234.291Z" fill="#B29586"/>
<path d="M124.783 84.7462C124.783 84.7462 134.777 86.7707 147.72 84.7462C147.72 80.6484 147.72 76.4043 147.72 76.4043L124.783 78.3556V84.7462Z" fill="#EF8F60"/>
<path d="M112.009 49.8658C112.009 49.8658 107.085 48.4511 107.085 54.7197C107.085 60.9883 112.691 60.5249 113.325 58.5004C113.983 56.5003 112.009 49.8658 112.009 49.8658Z" fill="#EF8F60"/>
<path d="M157.691 49.8658C157.691 49.8658 162.615 48.4511 162.615 54.7197C162.615 60.9883 157.009 60.5249 156.375 58.5004C155.717 56.5003 157.691 49.8658 157.691 49.8658Z" fill="#EF8F60"/>
<path d="M156.108 18.7402H135.292H114.476C114.476 18.7402 110.698 32.7409 112.209 52.5712C113.72 72.4259 118.62 80.6458 135.292 80.6458C151.965 80.6458 156.864 72.4015 158.375 52.5712C159.886 32.7409 156.108 18.7402 156.108 18.7402Z" fill="#FDB082"/>
<path d="M125.686 45.9154C125.686 44.9397 124.906 44.1592 123.931 44.1592C122.956 44.1592 122.176 44.9397 122.176 45.9154C122.176 46.891 122.956 47.6716 123.931 47.6716C124.906 47.6959 125.686 46.891 125.686 45.9154Z" fill="#382B26"/>
<path d="M118.13 41.6463C118.13 41.6463 120.933 40.6706 124.321 40.8414C127.709 41.0121 128.343 40.7438 128.563 39.3779C128.806 38.012 128.709 36.1582 124.76 36.085C120.836 36.0119 117.618 37.9388 116.521 39.4023C115.449 40.8414 115.229 42.2805 118.13 41.6463Z" fill="#633C26"/>
<path opacity="0.56" d="M127.636 54.1123C127.636 51.7707 125.735 49.8682 123.395 49.8682C121.055 49.8682 119.153 51.7707 119.153 54.1123C119.153 56.4539 121.055 58.3564 123.395 58.3564C125.759 58.332 127.636 56.4539 127.636 54.1123Z" fill="#F98B68"/>
<path d="M146.648 47.6716C147.618 47.6716 148.403 46.8853 148.403 45.9154C148.403 44.9454 147.618 44.1592 146.648 44.1592C145.679 44.1592 144.893 44.9454 144.893 45.9154C144.893 46.8853 145.679 47.6716 146.648 47.6716Z" fill="#382B26"/>
<path d="M152.427 41.6463C152.427 41.6463 149.623 40.6706 146.235 40.8414C142.847 41.0121 142.213 40.7438 141.994 39.3779C141.75 38.012 141.848 36.1582 145.797 36.085C149.721 36.0119 152.939 37.9388 154.035 39.4023C155.108 40.8414 155.327 42.2805 152.427 41.6463Z" fill="#633C26"/>
<path opacity="0.56" d="M143.504 54.1123C143.504 51.7707 145.405 49.8682 147.745 49.8682C150.085 49.8682 151.987 51.7707 151.987 54.1123C151.987 56.4539 150.085 58.3564 147.745 58.3564C145.381 58.332 143.504 56.4539 143.504 54.1123Z" fill="#F98B68"/>
<path d="M133.779 41.5719C133.779 41.5719 133.754 47.2795 132.999 50.5968C132.219 53.914 131.171 57.3776 134.998 58.1093C138.824 58.8411 139.531 55.0116 138.386 51.7432C137.265 48.4991 136.582 42.8891 136.143 41.2548C135.704 39.645 133.852 39.1084 133.779 41.5719Z" fill="url(#paint0_linear_2933_5470)"/>
<path d="M128.197 61.7449C128.173 61.5498 143.383 61.0376 143.383 61.0376C143.383 61.0376 142.798 67.8184 136.217 68.1355C129.635 68.4526 128.319 63.5011 128.197 61.7449Z" fill="white"/>
<path d="M150.11 22.8404C150.11 22.8404 146.575 19.0841 140.603 20.6939C134.631 22.3038 130.22 29.0358 123.906 31.1091C117.618 33.1824 112.816 32.475 112.816 32.475C112.816 32.475 112.475 43.3292 112.011 49.8661C107.502 46.9391 107.283 40.8169 108.038 37.1338C108.794 33.4507 108.794 30.9627 106.161 27.6211C103.529 24.2795 100.945 12.9618 114.985 4.76628C129.001 -3.42926 149.11 -1.20963 154.741 12.6203C162.248 12.8886 166.685 22.7672 163.638 30.3285C160.591 37.8899 160.859 38.9387 161.273 42.695C161.688 46.4513 160.518 48.988 158.714 49.7198C158.153 44.8415 156.91 44.4024 156.496 38.9143C156.082 33.4263 158.251 24.9136 150.11 22.8404Z" fill="#633C26"/>
<path d="M150.11 22.8406L154.765 12.6206L151.962 23.4992L150.11 22.8406Z" fill="#874C32"/>
<path d="M86.5396 155.359C86.5396 155.359 47.2958 190.361 47.8564 193.898C48.417 197.41 80.2996 226.973 81.1284 231.827C81.9571 236.68 75.5709 246.413 69.7452 245.852C63.9196 245.291 20.8732 212.655 14.4869 202.776C8.10066 192.922 14.4869 178.458 28.2345 161.238C41.982 144.017 67.259 119.284 79.8853 110.942C92.5115 102.625 92.0728 143.92 86.5396 155.359Z" fill="#CCB4AA"/>
<path d="M209.463 292.659C209.463 292.659 209.731 294.684 209.146 296.391C208.561 298.098 205.27 301.05 205.587 306.904C205.88 312.758 204.759 322.27 206.221 322.295C207.708 322.319 208.464 320.465 208.756 317.002C209.049 313.538 208.805 310.026 210.389 310.855C211.974 311.684 212.193 317.636 211.998 324.539C211.827 331.466 210.877 336.661 211.974 336.759C213.07 336.856 213.875 335.93 213.875 335.93C213.875 335.93 214.679 336.588 215.362 336.125C216.044 335.661 216.044 334.93 216.361 334.978C216.678 335.003 218.214 333.832 219.457 331.637C220.676 329.441 222.333 322.075 222.821 314.002C223.284 305.928 221.066 292.537 221.066 292.537L209.463 292.659Z" fill="#FDB082"/>
<path d="M116.52 93.9891C116.52 93.9891 122.638 107.112 128.171 115.258C133.729 123.381 137.336 127.283 138.384 127.283C139.433 127.283 145.599 116.746 148.719 109.844C151.839 102.965 154.618 94.4037 155.447 93.6476C156.276 92.8915 159.201 94.2818 159.201 95.7209C159.201 97.16 154.204 110.307 149.353 119.283C144.503 128.235 141.358 131.918 138.531 132.211C135.679 132.479 127.294 123.942 121.444 114.014C115.618 104.087 112.425 96.5746 112.352 95.6721C112.279 94.7696 113.473 92.8915 116.52 93.9891Z" fill="#B29586"/>
<path d="M207.659 291.024C207.659 291.024 206.83 294.317 209.146 295.464C211.462 296.61 219.432 296.147 221.455 295.464C223.503 294.781 222.942 290.268 222.942 290.268L207.659 291.024Z" fill="#B29586"/>
<path d="M194.545 111.407C194.545 111.407 205.368 117.383 216.117 153.506C226.842 189.63 229.621 269.293 228.89 280.22C228.159 291.148 223.332 292.538 213.802 292.635C204.271 292.733 201.127 278.927 200.298 268.561C199.469 258.17 197.714 237.803 196.422 228.266C195.131 218.729 188.281 198.997 188.281 198.997C188.281 198.997 182.602 124.895 194.545 111.407Z" fill="#CCB4AA"/>
<path d="M190.62 206.119L193.837 132.213L192.765 213.071L190.62 206.119Z" fill="#C1A49A"/>
<path d="M83.4942 158.092L81.5442 134.7L82.5192 158.97L83.4942 158.092Z" fill="#C1A49A"/>
<path d="M138.165 99.2081C138.165 98.6471 137.727 98.208 137.166 98.208C136.605 98.208 136.167 98.6471 136.167 99.2081C136.167 99.7691 136.605 100.208 137.166 100.208C137.702 100.208 138.165 99.7447 138.165 99.2081Z" fill="#C9BCBC"/>
<path d="M138.165 108.577C138.165 108.016 137.727 107.577 137.166 107.577C136.605 107.577 136.167 108.016 136.167 108.577C136.167 109.138 136.605 109.577 137.166 109.577C137.702 109.577 138.165 109.138 138.165 108.577Z" fill="#C9BCBC"/>
<path d="M138.165 117.968C138.165 117.407 137.727 116.968 137.166 116.968C136.605 116.968 136.167 117.407 136.167 117.968C136.167 118.529 136.605 118.968 137.166 118.968C137.702 118.968 138.165 118.504 138.165 117.968Z" fill="#C9BCBC"/>
</g>
<defs>
<linearGradient id="paint0_linear_2933_5470" x1="135.571" y1="43.0535" x2="135.571" y2="60.9768" gradientUnits="userSpaceOnUse">
<stop stop-color="#FDB082"/>
<stop offset="1" stop-color="#FD714E"/>
</linearGradient>
<clipPath id="clip0_2933_5470">
<rect width="229" height="294" fill="white"/>
</clipPath>
</defs>
</svg>
