<svg width="145" height="278" viewBox="0 0 145 278" fill="none" xmlns="http://www.w3.org/2000/svg">
<g clip-path="url(#clip0_2933_5417)">
<path d="M67.7949 209.144V259.865H70.9422C70.9422 259.865 72.6589 343.512 72.5289 352.737C72.3728 361.961 69.8498 392.169 71.8006 418.536C82.0228 421.672 97.4213 419.869 97.4213 419.869C97.4213 419.869 100.386 397.213 100.386 382.553C100.386 367.919 104.392 342.31 107.045 325.482C109.724 308.653 115.421 281.894 115.499 255.815C115.577 229.736 104.678 211.313 102.311 205.512C94.3 206.27 67.7949 209.144 67.7949 209.144Z" fill="#91B8C1"/>
<path d="M67.7961 209.144V259.865H64.6488C64.6488 259.865 62.932 343.512 63.0621 352.737C63.2182 361.961 65.7412 392.169 63.7904 418.536C53.5681 421.672 38.1697 419.869 38.1697 419.869C38.1697 419.869 35.2045 397.213 35.2045 382.553C35.2045 367.919 31.1988 342.31 28.5457 325.482C25.8666 308.653 20.1702 281.894 20.0922 255.815C20.0142 229.736 30.9127 211.313 33.2797 205.512C41.291 206.27 67.7961 209.144 67.7961 209.144Z" fill="#91B8C1"/>
<path d="M116.592 130.043C116.592 130.043 120.623 147.107 120.337 147.499C120.051 147.891 106.785 172.638 106.785 172.638C106.785 172.638 100.205 153.353 97.8118 136.785C96.4332 120.819 116.592 130.043 116.592 130.043Z" fill="#F79F72"/>
<path d="M33.2793 205.512C33.2793 205.512 41.5767 211.47 67.7956 211.47C67.7956 192.106 67.7956 162.499 67.7956 162.499L39.2358 152.674C39.2358 152.674 41.8108 182.046 40.3282 189.781C38.8716 197.542 33.2793 205.512 33.2793 205.512Z" fill="#FDB082"/>
<path d="M102.339 205.512C102.339 205.512 94.0412 211.47 67.8223 211.47C67.8223 192.106 67.8223 162.499 67.8223 162.499L96.3822 152.674C96.3822 152.674 93.8071 182.046 95.2897 189.781C96.7463 197.542 102.339 205.512 102.339 205.512Z" fill="#FDB082"/>
<path d="M16.5539 129.678C16.5539 129.678 15.2274 176.872 13.8748 184.973C12.5483 193.074 3.36642 247.662 2.16992 258.063C4.69298 256.913 9.34892 257.488 9.34892 257.488C9.34892 257.488 28.9871 210.712 31.042 188.997C33.1229 167.308 38.0129 127.379 38.0129 127.379L16.5539 129.678Z" fill="#FDB082"/>
<path d="M86.4592 87L99 90.7026V199.067C99 199.067 88.3103 202 68 202C68 155.846 68 106.356 68 106.356L86.4592 87Z" fill="#F4EDED"/>
<path d="M98.7495 89.7227C98.7495 89.7227 110.975 92.7539 114.902 102.187C118.83 111.621 121.145 131.272 121.145 131.272C121.145 131.272 105.512 134.251 96.4085 132.657C96.1224 101.874 98.7495 89.7227 98.7495 89.7227Z" fill="#F4EDED"/>
<path d="M98.748 132.92L99.0862 107.232L101.011 133.077L98.748 132.92Z" fill="#E8DADA"/>
<path d="M49.5408 87L37 90.7026V199.067C37 199.067 47.6897 202 68 202C68 155.846 68 106.356 68 106.356L49.5408 87Z" fill="#F4EDED"/>
<path d="M31.5 209C35.5 201.4 36.8333 171.167 37 157H99C98.6 172.6 101.5 198.167 103 209C78.6 219.4 45.1667 213.333 31.5 209Z" fill="#F4EDED"/>
<path d="M48.834 87.0849C48.834 87.0849 48.808 103.861 68.2901 103.861C87.7722 103.861 86.7838 87.0849 86.7838 87.0849C86.7838 87.0849 79.5788 87.1894 77.3939 83.1129C75.209 79.0364 76.1714 71.4844 76.1714 71.4844L60.2267 73.6794C60.2267 73.6794 60.877 79.0364 59.2123 83.1129C57.5476 87.1894 48.834 87.0849 48.834 87.0849Z" fill="#FDB082"/>
<path d="M60.3301 77.4422C60.3301 77.4422 62.619 80.4995 68.2894 80.4211C73.9597 80.3427 76.0406 77.4422 76.0406 77.4422L75.9885 74.437L60.3561 74.3848V77.4422H60.3301Z" fill="#EF8F60"/>
<path d="M56.4822 71.17H24.853C24.853 71.17 21.8878 63.4351 26.3356 54.1322C30.7835 44.8294 35.3094 41.2494 36.1937 30.849C37.0781 20.4225 38.2746 11.0413 46.2599 5.76275C54.2453 0.484182 62.5427 3.90741 62.5427 3.90741C62.5427 3.90741 67.5108 -1.89379 78.8516 0.640971C90.1923 3.17573 93.0795 13.1318 93.8858 21.4155C94.6922 29.6731 104.108 37.9307 107.229 49.4024C110.351 60.8742 109.154 71.1961 109.154 71.1961H76.8487H56.4822V71.17Z" fill="#995D3F"/>
<path d="M44.802 43.5487C44.802 43.5487 39.834 42.0853 39.834 48.5398C39.834 54.9682 45.4783 54.4978 46.1285 52.4334C46.7788 50.3429 44.802 43.5487 44.802 43.5487Z" fill="#EF8F60"/>
<path d="M90.7371 43.5487C90.7371 43.5487 95.7051 42.0853 95.7051 48.5398C95.7051 54.9682 90.0608 54.4978 89.4106 52.4334C88.7603 50.3429 90.7371 43.5487 90.7371 43.5487Z" fill="#EF8F60"/>
<path d="M89.1516 11.5645H68.2129H47.2741C47.2741 11.5645 43.4765 25.9368 44.9851 46.3194C46.4938 66.702 55.6756 75.3515 67.5886 75.8219C79.9178 76.3184 89.906 66.6759 91.4406 46.3194C92.9492 25.9368 89.1516 11.5645 89.1516 11.5645Z" fill="#FDB082"/>
<path d="M58.2758 43.2093C58.2758 42.2163 57.4695 41.4062 56.507 41.4062C55.5186 41.4062 54.7383 42.2163 54.7383 43.2093C54.7383 44.2023 55.5446 45.0124 56.507 45.0124C57.4695 45.0124 58.2758 44.2023 58.2758 43.2093Z" fill="#382B26"/>
<path opacity="0.56" d="M60.227 50.4472C60.227 48.0431 58.3282 46.1094 55.9612 46.1094C53.6201 46.1094 51.6953 48.0692 51.6953 50.4472C51.6953 52.8513 53.5941 54.7851 55.9612 54.7851C58.3282 54.7851 60.227 52.8513 60.227 50.4472Z" fill="#F98B68"/>
<path d="M77.5762 43.2093C77.5762 42.2163 78.3825 41.4062 79.3449 41.4062C80.3333 41.4062 81.1136 42.2163 81.1136 43.2093C81.1136 44.2023 80.3073 45.0124 79.3449 45.0124C78.3565 45.0124 77.5762 44.2023 77.5762 43.2093Z" fill="#382B26"/>
<path opacity="0.56" d="M76.1719 50.4472C76.1719 48.0431 78.0707 46.1094 80.4376 46.1094C82.7786 46.1094 84.7034 48.0692 84.7034 50.4472C84.7034 52.8513 82.8046 54.7851 80.4376 54.7851C78.0707 54.7851 76.1719 52.8513 76.1719 50.4472Z" fill="#F98B68"/>
<path d="M66.7816 42.1387C66.7816 42.1387 66.7816 45.8755 66.1833 48.0444C65.5851 50.2134 64.7528 52.4868 67.77 52.9833C70.7872 53.4798 71.3334 50.9451 70.4491 48.8284C69.5647 46.6856 69.0185 43.0272 68.6543 41.9558C68.2902 40.8844 66.8336 40.5447 66.7816 42.1387Z" fill="url(#paint0_linear_2933_5417)"/>
<path d="M55.4925 41.6682L53.75 41.041L54.8944 42.6873L55.4925 41.6682Z" fill="#382B26"/>
<path d="M80.2285 41.6682L81.9973 41.041L80.8268 42.6873L80.2285 41.6682Z" fill="#382B26"/>
<path d="M51.904 37.5392C52.1902 37.4085 53.5427 36.5723 55.6496 36.4678C57.7565 36.3633 60.0715 37.0427 60.5657 36.6769C61.0339 36.311 61.1639 34.4557 60.7737 34.2205C60.3836 33.9853 56.69 33.3059 54.6092 34.0898C52.5543 34.8738 50.2393 37.6699 50.4734 38.0357C50.7075 38.4277 51.0457 37.9834 51.904 37.5392Z" fill="#995D3F"/>
<path d="M83.6096 37.5392C83.3234 37.4085 81.9709 36.5723 79.864 36.4678C77.7572 36.3633 75.4422 37.0427 74.948 36.6769C74.4798 36.311 74.3498 34.4557 74.7399 34.2205C75.1301 33.9853 78.8236 33.3059 80.9044 34.0898C82.9593 34.8738 85.2742 37.6699 85.0401 38.0357C84.8321 38.4277 84.4939 37.9834 83.6096 37.5392Z" fill="#995D3F"/>
<path d="M59.7324 57.2166C59.7324 57.2166 69.2264 57.1382 76.8476 55.5703C73.5182 64.1415 66.1311 67.4079 59.7324 57.2166Z" fill="white"/>
<path d="M63.374 13.0542C63.374 13.0542 63.1919 18.176 55.9869 23.3762C48.7819 28.5763 44.5421 39.6039 44.8022 43.5497C43.5797 33.9594 44.4641 14.7005 46.8311 11.1989C49.1981 7.69723 63.348 11.1989 63.348 11.1989V13.0542H63.374Z" fill="#995D3F"/>
<path d="M63.375 13.0535C63.375 13.0535 67.1466 16.8426 76.4844 21.9121C85.8223 26.9816 90.6083 35.3698 91.6227 43.4183C94.3279 33.8281 89.5939 10.7539 89.5939 10.7539L63.375 11.1981V13.0535Z" fill="#995D3F"/>
<path d="M9.68773 256.73C9.68773 256.73 9.16751 258.272 9.6097 259.552C10.0519 260.833 12.1068 262.427 13.0692 267.993C13.8235 272.383 14.4477 276.747 13.7454 279.203C13.4333 280.275 12.3669 277.818 12.1588 275.179C11.9247 272.54 11.1704 270.554 10.5721 270.528C9.21953 270.423 9.21953 275.676 9.34959 280.902C9.50565 286.154 10.234 290.1 9.3756 290.179C8.54325 290.257 7.91898 289.552 7.91898 289.552C7.91898 289.552 7.32073 290.048 6.7745 289.682C6.25428 289.316 6.25428 288.794 5.99417 288.794C5.73406 288.82 4.56357 287.905 3.62717 286.259C2.69078 284.587 1.41624 278.994 1.05208 272.88C0.68793 266.765 2.35263 256.6 2.35263 256.6L9.68773 256.73Z" fill="#FDB082"/>
<path d="M36.8681 89.7227C36.8681 89.7227 24.6429 92.7539 20.7153 102.187C16.7876 111.621 14.4727 131.272 14.4727 131.272C14.4727 131.272 30.1052 134.251 39.2091 132.657C39.5212 101.874 36.8681 89.7227 36.8681 89.7227Z" fill="#F4EDED"/>
<path d="M36.8697 132.92L36.5316 107.232L34.6328 133.077L36.8697 132.92Z" fill="#E8DADA"/>
<path d="M39.6777 122.152H96.1212L96.7195 135.27L39.6777 139.425V122.152Z" fill="#F44D37"/>
<path d="M125.983 119.54C125.983 119.54 123.616 114.575 124.396 110.394C125.176 106.213 125.619 101.248 125.723 99.4184C125.827 97.5892 125.619 95.1589 126.555 94.767C127.491 94.375 127.934 97.0665 127.752 98.948C127.543 100.803 127.595 105.821 128.298 105.063C129 104.305 130.066 101.065 130.509 100.568C130.951 100.072 137.037 101.718 138.364 102.267C139.691 102.789 141.563 103.782 141.069 105.376C140.575 106.97 135.477 117.972 134.358 119.54C133.24 121.108 125.827 120.48 125.983 119.54Z" fill="#FDB082"/>
<path d="M130.533 100.594C130.533 100.594 132.926 89.2269 133.681 85.7776C134.409 82.3021 136.074 83.4257 135.293 88.8088C134.513 94.1919 133.03 101.143 133.03 101.143L130.533 100.594Z" fill="#FDB082"/>
<path d="M133.266 101.378C133.266 101.378 136.595 90.2196 137.635 86.7964C138.676 83.3993 140.21 84.6013 138.988 89.906C137.739 95.2107 135.711 102.057 135.711 102.057L133.266 101.378Z" fill="#FDB082"/>
<path d="M136.152 102.529C136.152 102.529 139.794 91.4228 140.912 88.0519C142.031 84.6809 143.565 85.9352 142.187 91.1877C140.808 96.4662 138.571 103.26 138.571 103.26L136.152 102.529Z" fill="#FDB082"/>
<path d="M138.363 105.35C138.363 105.35 142.603 94.427 143.904 91.1083C145.204 87.7896 146.661 89.0962 144.996 94.2964C143.331 99.4966 140.73 106.212 140.73 106.212L138.363 105.35Z" fill="#FDB082"/>
<path d="M134.383 119.434C134.383 119.434 132.016 149.303 129.649 161.402C127.282 173.501 123.224 181.549 117.112 181.654C110.999 181.758 106.629 174.703 106.343 170.339C106.057 165.975 108.71 159.128 114.354 150.975C119.973 142.848 125.227 125.183 126.007 119.408C129.441 113.476 134.279 115.358 134.383 119.434Z" fill="#FDB082"/>
<path d="M128.895 106.186C128.895 106.186 131.079 111.752 130.689 116.612C131.73 109.87 130.377 107.806 128.895 106.186Z" fill="#F79F72"/>
<path d="M30.0807 212.463C30.0807 212.463 39.5226 219.492 67.8224 219.492C96.1221 219.492 105.512 212.463 105.512 212.463L106.318 214.266C106.318 214.266 93.7551 221.295 67.8224 221.295C41.8896 221.295 29.4824 213.822 29.4824 213.822L30.0807 212.463Z" fill="#76A6AD"/>
<path d="M40.7441 251.922L64.6482 259.84V262.322L40.7441 251.922Z" fill="#76A6AD"/>
<path d="M70.9434 259.839L93.2868 252.418L70.9694 261.747L70.9434 259.839Z" fill="#76A6AD"/>
<path d="M90.1921 218.708C90.1921 218.708 92.403 223.176 97.5532 224.404C102.703 225.633 109.596 222.392 109.596 222.392L109.986 223.516C109.986 223.516 104.186 227.227 97.5011 225.816C90.8423 224.431 89.0996 218.682 89.0996 218.682H90.1921V218.708Z" fill="#76A6AD"/>
<path d="M45.3996 218.709C45.3996 218.709 43.1887 223.177 38.0386 224.406C32.8885 225.634 25.9956 222.42 25.9956 222.42L25.6055 223.543C25.6055 223.543 31.4059 227.254 38.0906 225.843C44.7493 224.458 46.492 218.709 46.492 218.709H45.3996Z" fill="#76A6AD"/>
</g>
<defs>
<linearGradient id="paint0_linear_2933_5417" x1="68.1874" y1="43.1243" x2="68.165" y2="54.8731" gradientUnits="userSpaceOnUse">
<stop stop-color="#FDB082"/>
<stop offset="1" stop-color="#FD714E"/>
</linearGradient>
<clipPath id="clip0_2933_5417">
<rect width="145" height="278" fill="white"/>
</clipPath>
</defs>
</svg>
