<svg width="15" height="15" viewBox="0 0 15 15" fill="none" xmlns="http://www.w3.org/2000/svg">
<path id="Vector" d="M9.22787 7.99535L14.737 2.495C14.9016 2.33033 14.9941 2.107 14.9941 1.87413C14.9941 1.64126 14.9016 1.41793 14.737 1.25327C14.5723 1.0886 14.349 0.996094 14.1161 0.996094C13.8832 0.996094 13.6599 1.0886 13.4952 1.25327L7.99489 6.76236L2.49454 1.25327C2.32987 1.0886 2.10654 0.996094 1.87367 0.996094C1.6408 0.996094 1.41747 1.0886 1.2528 1.25327C1.08814 1.41793 0.995633 1.64126 0.995633 1.87413C0.995633 2.107 1.08814 2.33033 1.2528 2.495L6.7619 7.99535L1.2528 13.4957C1.17084 13.577 1.10579 13.6737 1.06139 13.7803C1.017 13.8868 0.994141 14.0011 0.994141 14.1166C0.994141 14.232 1.017 14.3463 1.06139 14.4529C1.10579 14.5594 1.17084 14.6561 1.2528 14.7374C1.3341 14.8194 1.43081 14.8844 1.53737 14.9288C1.64393 14.9732 1.75823 14.9961 1.87367 14.9961C1.98911 14.9961 2.10341 14.9732 2.20997 14.9288C2.31653 14.8844 2.41324 14.8194 2.49454 14.7374L7.99489 9.22834L13.4952 14.7374C13.5765 14.8194 13.6732 14.8844 13.7798 14.9288C13.8864 14.9732 14.0007 14.9961 14.1161 14.9961C14.2315 14.9961 14.3458 14.9732 14.4524 14.9288C14.559 14.8844 14.6557 14.8194 14.737 14.7374C14.8189 14.6561 14.884 14.5594 14.9284 14.4529C14.9728 14.3463 14.9956 14.232 14.9956 14.1166C14.9956 14.0011 14.9728 13.8868 14.9284 13.7803C14.884 13.6737 14.8189 13.577 14.737 13.4957L9.22787 7.99535Z" fill="#999999"/>
</svg>
