<svg width="17" height="17" viewBox="0 0 17 17" fill="none" xmlns="http://www.w3.org/2000/svg">
<path d="M8.39541 10.9736C8.40783 10.9895 8.42371 11.0023 8.44183 11.0112C8.45995 11.02 8.47984 11.0246 8.5 11.0246C8.52016 11.0246 8.54005 11.02 8.55817 11.0112C8.57629 11.0023 8.59217 10.9895 8.60459 10.9736L10.464 8.62119C10.532 8.53486 10.4706 8.40703 10.3594 8.40703H9.1292V2.78906C9.1292 2.71602 9.06943 2.65625 8.99639 2.65625H8.00029C7.92725 2.65625 7.86748 2.71602 7.86748 2.78906V8.40537H6.64062C6.52939 8.40537 6.46797 8.5332 6.53604 8.61953L8.39541 10.9736ZM14.5762 10.3926H13.5801C13.507 10.3926 13.4473 10.4523 13.4473 10.5254V13.082H3.55273V10.5254C3.55273 10.4523 3.49297 10.3926 3.41992 10.3926H2.42383C2.35078 10.3926 2.29102 10.4523 2.29102 10.5254V13.8125C2.29102 14.1063 2.52842 14.3438 2.82227 14.3438H14.1777C14.4716 14.3438 14.709 14.1063 14.709 13.8125V10.5254C14.709 10.4523 14.6492 10.3926 14.5762 10.3926Z" fill="#888888"/>
</svg>
