<svg width="15" height="15" viewBox="0 0 15 15" fill="none" xmlns="http://www.w3.org/2000/svg">
<g clip-path="url(#clip0_1_182)">
<path fill-rule="evenodd" clip-rule="evenodd" d="M0.937501 7.50002C0.937501 7.62434 0.986886 7.74357 1.07479 7.83147C1.1627 7.91938 1.28193 7.96877 1.40625 7.96877L12.4622 7.96877L9.51188 10.9181C9.46829 10.9617 9.43372 11.0135 9.41014 11.0704C9.38655 11.1274 9.37441 11.1884 9.37441 11.25C9.37441 11.3117 9.38655 11.3727 9.41014 11.4296C9.43372 11.4866 9.46829 11.5383 9.51188 11.5819C9.55546 11.6255 9.6072 11.66 9.66414 11.6836C9.72108 11.7072 9.78212 11.7194 9.84375 11.7194C9.90539 11.7194 9.96642 11.7072 10.0234 11.6836C10.0803 11.66 10.132 11.6255 10.1756 11.5819L13.9256 7.83189C13.9693 7.78835 14.0039 7.73662 14.0275 7.67967C14.0512 7.62273 14.0633 7.56168 14.0633 7.50002C14.0633 7.43836 14.0512 7.37731 14.0275 7.32036C14.0039 7.26341 13.9693 7.21169 13.9256 7.16814L10.1756 3.41814C10.132 3.37456 10.0803 3.33999 10.0234 3.3164C9.96642 3.29282 9.90539 3.28068 9.84375 3.28068C9.78212 3.28068 9.72109 3.29282 9.66414 3.3164C9.6072 3.33999 9.55546 3.37456 9.51188 3.41814C9.46829 3.46173 9.43372 3.51347 9.41014 3.57041C9.38655 3.62735 9.37441 3.68838 9.37441 3.75002C9.37441 3.81165 9.38655 3.87268 9.41014 3.92963C9.43372 3.98657 9.46829 4.03831 9.51188 4.08189L12.4622 7.03127L1.40625 7.03127C1.28193 7.03127 1.1627 7.08065 1.07479 7.16856C0.986886 7.25647 0.937501 7.3757 0.937501 7.50002Z" fill="#888888"/>
</g>
<defs>
<clipPath id="clip0_1_182">
<rect width="15" height="15" fill="white" transform="translate(15 15) rotate(-180)"/>
</clipPath>
</defs>
</svg>
