<svg width="21" height="21" viewBox="0 0 21 21" fill="none" xmlns="http://www.w3.org/2000/svg">
<g clip-path="url(#clip0_1_212)">
<path d="M11.2812 17.1875V11.9375H8.65625V13.25H9.96875V17.1875H8V18.5H13.25V17.1875H11.2812ZM10.625 8C10.4303 8 10.24 8.05773 10.0781 8.1659C9.91623 8.27406 9.79006 8.4278 9.71556 8.60767C9.64105 8.78754 9.62156 8.98547 9.65954 9.17642C9.69752 9.36737 9.79127 9.54277 9.92894 9.68043C10.0666 9.8181 10.242 9.91185 10.433 9.94984C10.6239 9.98782 10.8218 9.96832 11.0017 9.89382C11.1816 9.81931 11.3353 9.69314 11.4435 9.53126C11.5516 9.36938 11.6094 9.17907 11.6094 8.98438C11.6094 8.7233 11.5057 8.47292 11.3211 8.28832C11.1365 8.10371 10.8861 8 10.625 8Z" fill="#BFBFC5"/>
<path d="M17.4375 21.75H4.3125C3.96451 21.7497 3.63087 21.6113 3.38481 21.3652C3.13874 21.1191 3.00035 20.7855 3 20.4375V7.3125C3.00035 6.96451 3.13874 6.63087 3.38481 6.38481C3.63087 6.13874 3.96451 6.00035 4.3125 6H17.4375C17.7855 6.00035 18.1191 6.13874 18.3652 6.38481C18.6113 6.63087 18.7497 6.96451 18.75 7.3125V20.4375C18.7497 20.7855 18.6113 21.1191 18.3652 21.3652C18.1191 21.6113 17.7855 21.7497 17.4375 21.75ZM4.3125 7.3125V20.4375H17.4375V7.3125H10.875H4.3125Z" fill="#BFBFC5"/>
</g>
<defs>
<clipPath id="clip0_1_212">
<rect width="21" height="21" fill="white"/>
</clipPath>
</defs>
</svg>
