<svg width="36" height="36" viewBox="0 0 36 36" fill="none" xmlns="http://www.w3.org/2000/svg">
<path d="M22.0286 17.2688L9.57599 15.075V31.2851C9.57614 31.4612 9.61097 31.6356 9.6785 31.7982C9.74602 31.9609 9.84493 32.1086 9.96955 32.233C10.0942 32.3575 10.2421 32.4561 10.4048 32.5234C10.5676 32.5906 10.742 32.6252 10.9181 32.625H32.4056C32.5819 32.6255 32.7566 32.5911 32.9196 32.524C33.0826 32.4569 33.2308 32.3583 33.3556 32.2338C33.4805 32.1094 33.5796 31.9615 33.6473 31.7987C33.7149 31.636 33.7498 31.4614 33.75 31.2851V25.3125L22.0286 17.2688Z" fill="#185C37"/>
<path d="M22.0286 3.375H10.9181C10.742 3.37485 10.5676 3.40939 10.4048 3.47665C10.2421 3.5439 10.0942 3.64256 9.96955 3.76697C9.84493 3.89139 9.74602 4.03914 9.6785 4.20178C9.61097 4.36442 9.57614 4.53877 9.57599 4.71488V10.6875L22.0286 18L28.6222 20.1938L33.75 18V10.6875L22.0286 3.375Z" fill="#21A366"/>
<path d="M9.57599 10.6875H22.0286V18H9.57599V10.6875Z" fill="#107C41"/>
<path opacity="0.1" d="M18.4882 9.22501H9.57599V27.5063H18.4882C18.8434 27.5045 19.1835 27.3629 19.4349 27.1121C19.6863 26.8613 19.8288 26.5215 19.8315 26.1664V10.5649C19.8288 10.2098 19.6863 9.86999 19.4349 9.6192C19.1835 9.3684 18.8434 9.22677 18.4882 9.22501Z" fill="black"/>
<path opacity="0.2" d="M17.7559 9.95624H9.57599V28.2375H17.7559C18.111 28.2357 18.4511 28.0941 18.7025 27.8433C18.954 27.5925 19.0965 27.2527 19.0991 26.8976V11.2961C19.0965 10.941 18.954 10.6012 18.7025 10.3504C18.4511 10.0996 18.111 9.958 17.7559 9.95624Z" fill="black"/>
<path opacity="0.2" d="M17.7559 9.95624H9.57599V26.775H17.7559C18.111 26.7732 18.4511 26.6316 18.7025 26.3808C18.954 26.13 19.0965 25.7902 19.0991 25.4351V11.2961C19.0965 10.941 18.954 10.6012 18.7025 10.3504C18.4511 10.0996 18.111 9.958 17.7559 9.95624Z" fill="black"/>
<path opacity="0.2" d="M17.0235 9.95624H9.57599V26.775H17.0235C17.3786 26.7732 17.7187 26.6316 17.9702 26.3808C18.2216 26.13 18.3641 25.7902 18.3667 25.4351V11.2961C18.3641 10.941 18.2216 10.6012 17.9702 10.3504C17.7187 10.0996 17.3786 9.958 17.0235 9.95624Z" fill="black"/>
<path d="M3.59325 9.95624H17.0235C17.3793 9.95594 17.7206 10.0969 17.9725 10.3481C18.2243 10.5994 18.3662 10.9404 18.3668 11.2961V24.7039C18.3662 25.0596 18.2243 25.4006 17.9725 25.6518C17.7206 25.9031 17.3793 26.044 17.0235 26.0437H3.59325C3.41705 26.044 3.24252 26.0096 3.07964 25.9424C2.91676 25.8752 2.76871 25.7766 2.64396 25.6522C2.51922 25.5277 2.42021 25.3799 2.35262 25.2172C2.28502 25.0545 2.25015 24.8801 2.25 24.7039V11.2961C2.25015 11.1199 2.28502 10.9455 2.35262 10.7828C2.42021 10.62 2.51922 10.4722 2.64396 10.3478C2.76871 10.2234 2.91676 10.1248 3.07964 10.0576C3.24252 9.99037 3.41705 9.95594 3.59325 9.95624Z" fill="url(#paint0_linear_1_132)"/>
<path d="M6.41248 22.3571L9.23735 17.9876L6.64985 13.6429H8.72773L10.1396 16.425C10.2701 16.6883 10.3646 16.884 10.4074 17.0145H10.4265C10.5187 16.803 10.6166 16.5994 10.719 16.4003L12.2287 13.6474H14.1412L11.4874 17.9674L14.2087 22.3605H12.1736L10.5424 19.3106C10.4666 19.1795 10.4022 19.0421 10.35 18.9H10.323C10.2754 19.0385 10.212 19.171 10.134 19.2949L8.45435 22.3571H6.41248Z" fill="white"/>
<path d="M32.4068 3.375H22.0286V10.6875H33.75V4.71488C33.7499 4.53868 33.715 4.36424 33.6474 4.20152C33.5798 4.03881 33.4808 3.89101 33.356 3.76658C33.2313 3.64214 33.0832 3.54351 32.9204 3.47633C32.7575 3.40914 32.5829 3.37471 32.4068 3.375Z" fill="#33C481"/>
<path d="M22.0286 18H33.75V25.3125H22.0286V18Z" fill="#107C41"/>
<defs>
<linearGradient id="paint0_linear_1_132" x1="5.05575" y1="8.90324" x2="15.561" y2="27.0967" gradientUnits="userSpaceOnUse">
<stop stop-color="#18884F"/>
<stop offset="0.5" stop-color="#117E43"/>
<stop offset="1" stop-color="#0B6631"/>
</linearGradient>
</defs>
</svg>
