<svg width="36" height="36" viewBox="0 0 36 36" fill="none" xmlns="http://www.w3.org/2000/svg">
<path d="M27.1125 2.33099L33.372 8.85599V33.669H9.98889V33.75H33.4519V8.93812L27.1125 2.33099Z" fill="#909090"/>
<path d="M27.0349 2.25H9.909V33.669H33.372V8.85713L27.0337 2.25" fill="#F4F4F4"/>
<path d="M9.73685 3.9375H2.5481V11.6179H25.1606V3.9375H9.73685Z" fill="#7A7B7C"/>
<path d="M25.281 11.4874H2.6944V3.80139H25.281V11.4874Z" fill="#DD2025"/>
<path d="M10.1835 5.10077H8.71313V10.5008H9.86963V8.6794L10.125 8.69402C10.3732 8.68975 10.619 8.6453 10.8529 8.5624C11.058 8.49186 11.2466 8.38049 11.4075 8.23502C11.5712 8.09645 11.7002 7.92155 11.7844 7.72427C11.8972 7.39633 11.9375 7.04781 11.9025 6.70277C11.8955 6.4563 11.8523 6.21219 11.7743 5.97827C11.7032 5.80942 11.5978 5.6572 11.4648 5.5313C11.3317 5.40541 11.1739 5.30859 11.0014 5.24702C10.8522 5.19302 10.6981 5.15383 10.5413 5.13002C10.4225 5.1117 10.3026 5.10192 10.1824 5.10077M9.96976 7.68152H9.86963V6.01652H10.0868C10.1826 6.00961 10.2787 6.02432 10.3681 6.05957C10.4575 6.09481 10.5378 6.14969 10.6031 6.22015C10.7385 6.40129 10.8108 6.62178 10.809 6.8479C10.809 7.12465 10.809 7.37552 10.5593 7.55215C10.3793 7.65111 10.1745 7.69567 9.96976 7.6804M14.0996 5.08615C13.9748 5.08615 13.8533 5.09515 13.7678 5.09852L13.5 5.10527H12.6225V10.5053H13.6553C14.0499 10.5161 14.4429 10.4492 14.8118 10.3084C15.1087 10.1906 15.3716 10.0008 15.5768 9.75602C15.7763 9.50904 15.9195 9.22147 15.9964 8.9134C16.0848 8.5645 16.1279 8.20568 16.1246 7.84577C16.1465 7.4207 16.1136 6.99459 16.0268 6.5779C15.9444 6.27118 15.7901 5.9885 15.5768 5.75327C15.4094 5.56333 15.2044 5.41012 14.9749 5.30327C14.7778 5.21206 14.5704 5.14482 14.3573 5.10302C14.2725 5.08902 14.1867 5.08262 14.1008 5.0839M13.896 9.51302H13.7835V6.06602H13.7981C14.0301 6.03934 14.2647 6.08119 14.4731 6.1864C14.6258 6.30827 14.7501 6.4618 14.8376 6.6364C14.9321 6.82015 14.9865 7.02183 14.9974 7.22815C15.0075 7.47565 14.9974 7.67815 14.9974 7.84577C15.002 8.03887 14.9895 8.23199 14.9603 8.4229C14.9256 8.61891 14.8615 8.80855 14.7701 8.9854C14.6667 9.14982 14.527 9.28837 14.3618 9.3904C14.223 9.48017 14.0586 9.52205 13.8938 9.50965M19.6088 5.10527H16.875V10.5053H18.0315V8.36327H19.494V7.35977H18.0315V6.10877H19.6065V5.10527" fill="#464648"/>
<path d="M24.5036 22.7869C24.5036 22.7869 28.0901 22.1366 28.0901 23.3618C28.0901 24.5869 25.8683 24.0885 24.5036 22.7869ZM21.852 22.8803C21.2822 23.0062 20.7269 23.1905 20.1949 23.4304L20.6449 22.4179C21.0949 21.4054 21.5618 20.025 21.5618 20.025C22.0987 20.9288 22.7235 21.7774 23.427 22.5585C22.8965 22.6376 22.3707 22.7458 21.852 22.8825V22.8803ZM20.4323 15.5678C20.4323 14.5001 20.7776 14.2088 21.0465 14.2088C21.3154 14.2088 21.618 14.3381 21.6281 15.2651C21.5405 16.1973 21.3454 17.1161 21.0465 18.0034C20.6372 17.2585 20.4253 16.4211 20.4311 15.5711L20.4323 15.5678ZM15.2021 27.3983C14.1019 26.7401 17.5095 24.714 18.1271 24.6488C18.1238 24.6499 16.3541 28.0868 15.2021 27.3983ZM29.1375 23.5069C29.1263 23.3944 29.025 22.149 26.8088 22.2019C25.885 22.187 24.9617 22.2521 24.0491 22.3965C23.1652 21.506 22.404 20.5015 21.7856 19.4096C22.1752 18.284 22.411 17.1109 22.4865 15.9221C22.4539 14.5721 22.131 13.7981 21.096 13.8094C20.061 13.8206 19.9103 14.7263 20.0464 16.074C20.1797 16.9797 20.4313 17.864 20.7945 18.7043C20.7945 18.7043 20.3164 20.1926 19.6841 21.6731C19.0519 23.1536 18.6199 23.9299 18.6199 23.9299C17.5205 24.2878 16.4855 24.8195 15.5543 25.5049C14.6273 26.3678 14.2504 27.0304 14.7386 27.693C15.1594 28.2645 16.632 28.3939 17.9483 26.6693C18.6476 25.7785 19.2866 24.8419 19.8608 23.8658C19.8608 23.8658 21.8678 23.3156 22.4921 23.1649C23.1165 23.0141 23.8714 22.8949 23.8714 22.8949C23.8714 22.8949 25.704 24.7388 27.4714 24.6735C29.2388 24.6083 29.1533 23.6171 29.142 23.5091" fill="#DD2025"/>
<path d="M26.9482 2.33661V8.94373H33.2854L26.9482 2.33661Z" fill="#909090"/>
<path d="M27.0349 2.25V8.85713H33.372L27.0349 2.25Z" fill="#F4F4F4"/>
<path d="M10.0969 5.0141H8.62653V10.4141H9.78753V8.59385L10.044 8.60848C10.2922 8.60421 10.538 8.55976 10.7719 8.47685C10.977 8.40629 11.1656 8.29492 11.3265 8.14948C11.489 8.01053 11.6169 7.83566 11.7 7.63873C11.8129 7.31079 11.8532 6.96227 11.8182 6.61723C11.8111 6.37075 11.7679 6.12664 11.6899 5.89273C11.6189 5.72387 11.5135 5.57166 11.3804 5.44576C11.2474 5.31986 11.0896 5.22305 10.917 5.16148C10.7672 5.10695 10.6123 5.06738 10.4547 5.04335C10.3359 5.02503 10.2159 5.01525 10.0958 5.0141M9.88315 7.59485H9.78303V5.92985H10.0013C10.0971 5.92294 10.1933 5.93766 10.2826 5.9729C10.372 6.00815 10.4523 6.06302 10.5177 6.13348C10.653 6.31462 10.7253 6.53511 10.7235 6.76123C10.7235 7.03798 10.7235 7.28885 10.4738 7.46548C10.2939 7.56444 10.0891 7.609 9.88428 7.59373M14.013 4.99948C13.8882 4.99948 13.7667 5.00848 13.6812 5.01185L13.4168 5.0186H12.5393V10.4186H13.572C13.9667 10.4294 14.3597 10.3625 14.7285 10.2217C15.0254 10.104 15.2883 9.91413 15.4935 9.66935C15.6931 9.42237 15.8363 9.1348 15.9132 8.82673C16.0015 8.47783 16.0446 8.11901 16.0414 7.7591C16.0632 7.33403 16.0303 6.90792 15.9435 6.49123C15.8612 6.18451 15.7069 5.90183 15.4935 5.6666C15.3261 5.47666 15.1212 5.32345 14.8917 5.2166C14.6945 5.12539 14.4872 5.05816 14.274 5.01635C14.1893 5.00235 14.1034 4.99595 14.0175 4.99723M13.8128 9.42635H13.7003V5.97935H13.7149C13.9468 5.95267 14.1815 5.99452 14.3899 6.09973C14.5425 6.2216 14.6669 6.37513 14.7544 6.54973C14.8489 6.73348 14.9033 6.93516 14.9142 7.14148C14.9243 7.38898 14.9142 7.59148 14.9142 7.7591C14.9187 7.9522 14.9063 8.14532 14.877 8.33623C14.8424 8.53224 14.7783 8.72188 14.6869 8.89873C14.5835 9.06315 14.4438 9.2017 14.2785 9.30373C14.1397 9.3935 13.9754 9.43538 13.8105 9.42298M19.5222 5.0186H16.7884V10.4186H17.9449V8.2766H19.4074V7.2731H17.9449V6.0221H19.5199V5.0186" fill="white"/>
</svg>
