<svg width="36" height="36" viewBox="0 0 36 36" fill="none" xmlns="http://www.w3.org/2000/svg">
<path d="M20.853 2.61115V5.83202C24.678 5.85339 29.1296 5.79264 32.9513 5.85002C33.6735 5.85002 33.705 6.48902 33.714 7.04702C33.7747 13.7318 33.6994 20.6089 33.75 27.297C33.7365 27.5603 33.7432 28.5345 33.7354 28.8113C33.7106 29.7371 33.2471 29.7776 32.3212 29.8058C32.1727 29.8058 31.7362 29.8125 31.5923 29.8193C28.0136 29.8013 24.435 29.8091 20.853 29.8091V33.3889L2.25 30.5258V5.48215L20.853 2.61227" fill="#D33922"/>
<path d="M20.853 6.90527H32.6655V28.7303H20.853V25.875H29.4412V24.4406H20.853V22.6519H29.4412V21.2209H20.8564C20.8564 20.5189 20.8564 19.818 20.8496 19.1171C21.5523 19.3706 22.3026 19.4643 23.046 19.3913C23.7894 19.3183 24.5072 19.0806 25.1471 18.6953C25.7994 18.2667 26.3397 17.6883 26.7231 17.0085C27.1065 16.3286 27.3217 15.567 27.351 14.787C25.776 14.7758 24.2089 14.7803 22.6417 14.7803C22.6417 13.2233 22.6597 11.6674 22.6091 10.1138C22.0219 10.2263 21.4357 10.35 20.8519 10.4749V6.9064" fill="white"/>
<path d="M23.3618 9.3645C24.5821 9.44097 25.7329 9.95882 26.5994 10.8214C27.4659 11.684 27.989 12.8324 28.071 14.0524C26.496 14.0704 24.9289 14.0636 23.3584 14.0636V9.3645" fill="#D33922"/>
<path d="M7.98751 12.0667C9.93038 12.1601 12.285 11.2972 13.896 12.7541C15.4384 14.6261 15.03 18.0686 12.744 19.188C11.9128 19.5171 11.0117 19.6302 10.125 19.5165C10.125 20.916 10.1183 22.3155 10.125 23.7139C9.41626 23.6531 8.70413 23.5924 7.99538 23.535C7.96276 19.71 7.95601 15.885 7.99538 12.06" fill="white"/>
<path d="M10.1171 14.0018C10.8225 13.9691 11.6921 13.8409 12.1713 14.5024C12.363 14.8626 12.467 15.2629 12.475 15.6708C12.483 16.0787 12.3948 16.4828 12.2175 16.8503C11.8091 17.5871 10.8866 17.5163 10.1745 17.6018C10.0991 16.4025 10.107 15.2044 10.1171 14.0018Z" fill="#D33922"/>
</svg>
